Coordinates
version=1
nRows=13
nColumns=36
inDegrees=yes

Units are S.I. units (second, meters, Newtons, ...)
Angles are in degrees.

endheader
time	pelvis_tilt	pelvis_list	pelvis_rotation	pelvis_tx	pelvis_ty	pelvis_tz	hip_flexion_r	hip_adduction_r	hip_rotation_r	knee_angle_r	ankle_angle_r	subtalar_angle_r	hip_flexion_l	hip_adduction_l	hip_rotation_l	knee_angle_l	ankle_angle_l	subtalar_angle_l	lumbar_extension	lumbar_bending	lumbar_rotation	arm_flex_r	arm_add_r	arm_rot_r	elbow_flex_r	pro_sup_r	wrist_flex_r	wrist_dev_r	arm_flex_l	arm_add_l	arm_rot_l	elbow_flex_l	pro_sup_l	wrist_flex_l	wrist_dev_l
      1.95000000	     -2.47533180	      3.56394342	     -0.57531222	      0.27156044	      0.91862959	     -0.25524139	     28.58818678	     -1.96396577	     -2.26910365	    -52.51241397	      0.75861109	    -10.19230635	      3.92398705	      8.38944767	      5.27530092	    -18.37792329	     11.00804754	     -0.04476667	     -4.49488350	     -2.63181609	     -4.37646699	     -3.17513889	    -17.13092245	     14.29936529	     19.52752658	     86.51662706	      0.00000000	      0.00000000	      4.31586122	    -17.41022000	     25.48546963	     24.99429090	     86.51662706	      0.00000000	      0.00000000
      1.96000000	     -2.35343176	      3.47710785	     -0.20249831	      0.28444730	      0.91856855	     -0.25536736	     28.92148584	     -2.05433288	     -2.91067179	    -49.26546739	      0.94322400	    -10.63842572	      2.37406737	      8.24198037	      5.61368724	    -17.45680646	     11.27986207	      0.18394537	     -4.68611085	     -2.49875445	     -4.90347157	     -3.56368125	    -16.99311590	     13.92681621	     18.79795938	     86.51662706	      0.00000000	      0.00000000	      4.88343041	    -17.72720725	     25.08613166	     26.25303181	     86.51662706	      0.00000000	      0.00000000
      1.97000000	     -2.21406138	      3.41887855	      0.17103022	      0.29738855	      0.91829886	     -0.25544621	     29.11493162	     -2.16076384	     -3.54506598	    -45.78974954	      1.09431366	    -10.84126823	      0.83360384	      8.09838723	      5.89511001	    -16.58059286	     11.55425667	      0.49655903	     -4.90126330	     -2.40224652	     -5.40556184	     -3.93694268	    -16.84318811	     13.58499128	     18.06510785	     86.51662706	      0.00000000	      0.00000000	      5.44199357	    -18.03969720	     24.66920936	     27.50651259	     86.51662706	      0.00000000	      0.00000000
      1.98000000	     -2.06702334	      3.38368361	      0.54967069	      0.31039841	      0.91781517	     -0.25547358	     29.18363004	     -2.27786358	     -4.18167180	    -42.11204883	      1.24826410	    -10.70160956	     -0.68044144	      7.95599076	      6.12251588	    -15.76522745	     11.82338754	      0.88339482	     -5.12753968	     -2.33667039	     -5.88591022	     -4.29683271	    -16.68260979	     13.27760741	     17.33714878	     86.51662706	      0.00000000	      0.00000000	      5.98480553	    -18.34286299	     24.23384919	     28.74794511	     86.51662706	      0.00000000	      0.00000000
      1.99000000	     -1.92195175	      3.36458943	      0.93473438	      0.32348442	      0.91712647	     -0.25543815	     29.14499397	     -2.39851132	     -4.83405404	    -38.27349068	      1.43121801	    -10.15010335	     -2.15303271	      7.80882810	      6.30205095	    -15.02414982	     12.08080507	      1.33207689	     -5.35059350	     -2.29439673	     -6.34683923	     -4.64574341	    -16.51350779	     13.00617719	     16.62249577	     86.51662706	      0.00000000	      0.00000000	      6.50313682	    -18.63264344	     23.77801891	     29.97251173	     86.51662706	      0.00000000	      0.00000000
      2.00000000	     -1.78714591	      3.35442521	      1.32375981	      0.33666038	      0.91626038	     -0.25533072	     29.01901497	     -2.51398635	     -5.51579694	    -34.33320120	      1.65881488	     -9.15740424	     -3.57167634	      7.64893964	      6.44415988	    -14.36845130	     12.32201223	      1.82684633	     -5.55642651	     -2.26707860	     -6.78886787	     -4.98553910	    -16.33857949	     12.77107272	     15.92892207	     86.51662706	      0.00000000	      0.00000000	      6.98699694	    -18.90568652	     23.29817966	     31.17771635	     86.51662706	      0.00000000	      0.00000000
      2.01000000	     -1.66851127	      3.34634649	      1.71118719	      0.34995059	      0.91523812	     -0.25515220	     28.82979303	     -2.61450892	     -6.23626945	    -30.36968990	      1.93771986	     -7.74005891	     -4.92705175	      7.46852207	      6.56358983	    -13.80783275	     12.54396923	      2.34823175	     -5.73359595	     -2.24696922	     -7.21076318	     -5.31646486	    -16.16105306	     12.57240526	     15.26305807	     86.51662706	      0.00000000	      0.00000000	      7.42617316	    -19.15933446	     22.78933757	     32.36341457	     86.51662706	      0.00000000	      0.00000000
      2.02000000	     -1.56884218	      3.33433388	      2.08974303	      0.36338024	      0.91405358	     -0.25490820	     28.60651830	     -2.69025351	     -6.99717364	    -26.48002654	      2.26787633	     -5.96110806	     -6.21303789	      7.26247045	      6.67821075	    -13.35169550	     12.74412828	      2.87372307	     -5.87540534	     -2.22767675	     -7.61051707	     -5.63628555	    -15.98454978	     12.41064322	     14.63027672	     86.51662706	      0.00000000	      0.00000000	      7.81121157	    -19.39175950	     22.24554937	     33.53146713	     86.51662706	      0.00000000	      0.00000000
      2.03000000	     -1.48754204	      3.31399424	      2.45207385	      0.37696528	      0.91269036	     -0.25459509	     28.38215125	     -2.73301930	     -7.79026260	    -22.77655361	      2.64444030	     -3.92516576	     -7.42576514	      7.03042743	      6.80676295	    -13.00993519	     12.91968103	      3.37983927	     -5.98141938	     -2.20431695	     -7.98683281	     -5.94001953	    -15.81289694	     12.28693719	     14.03486419	     86.51662706	      0.00000000	      0.00000000	      8.13399126	    -19.60215875	     21.66084664	     34.68500198	     86.51662706	      0.00000000	      0.00000000
      2.04000000	     -1.42062298	      3.28352293	      2.79254078	      0.39070405	      0.91115922	     -0.25419675	     28.18952647	     -2.73820249	     -8.59639799	    -19.38047819	      3.05877367	     -1.76859106	     -8.56234945	      6.77751417	      6.96581174	    -12.79336003	     13.06744594	      3.84558522	     -6.05747710	     -2.17354089	     -8.34058138	     -6.22057479	    -15.65001530	     12.20314474	     13.48029121	     86.51662706	      0.00000000	      0.00000000	      8.38768486	    -19.79079314	     21.03043757	     35.82733360	     86.51662706	      0.00000000	      0.00000000
      2.05000000	     -1.36138384	      3.24447318	      3.10872179	      0.40457360	      0.90950828	     -0.25370443	     28.05575434	     -2.70637189	     -9.38627628	    -16.41229601	      3.49842863	      0.35387400	     -9.62045679	      6.51330814	      7.16633045	    -12.71371509	     13.18446281	      4.25679387	     -6.11366625	     -2.13359748	     -8.67578855	     -6.47038889	    -15.49986577	     12.16157646	     12.96941211	     86.51662706	      0.00000000	      0.00000000	      8.56615301	    -19.95870344	     20.35197009	     36.96066329	     86.51662706	      0.00000000	      0.00000000
      2.06000000	     -1.30230884	      3.20133658	      3.40176542	      0.41854014	      0.90779429	     -0.25313674	     27.99644774	     -2.64418582	    -10.12317288	    -13.98008753	      3.94621126	      2.28421874	    -10.59907536	      6.24909738	      7.41049340	    -12.78322098	     13.26894724	      4.61041246	     -6.16036207	     -2.08422408	     -8.99976652	     -6.68379109	    -15.36636231	     12.16452469	     12.50449880	     86.51662706	      0.00000000	      0.00000000	      8.66308204	    -20.10709793	     19.62660735	     38.08474906	     86.51662706	      0.00000000	      0.00000000
      2.07000000	     -1.23717621	      3.15924678	      3.67556716	      0.43258663	      0.90604784	     -0.25252841	     28.01206354	     -2.56394527	    -10.76778987	    -12.16733194	      4.37817050	      3.87631247	    -11.49932236	      5.99419428	      7.68933164	    -13.01342344	     13.32096465	      4.91755658	     -6.20333333	     -2.02624750	     -9.32205265	     -6.85938848	    -15.25324715	     12.21367014	     12.08710883	     86.51662706	      0.00000000	      0.00000000	      8.67134732	    -20.23656482	     18.85969097	     39.19576799	     86.51662706	      0.00000000	      0.00000000
